<?xml version="1.0" encoding="UTF-8"?>
<svg id="Layer_1" xmlns="http://www.w3.org/2000/svg" version="1.1" viewBox="0 0 114.22 81.75">
  <!-- Generator: Adobe Illustrator 29.6.1, SVG Export Plug-In . SVG Version: 2.1.1 Build 9)  -->
  <path d="M19.96,28.33c.83,1.16,1.92,1.46,1.92,1.89,0,.23-.15.33-.4.33h-5.83c-.25,0-.4-.1-.4-.33,0-.43.8-.63.8-1.19,0-.1-.07-.33-.25-.66l-4.45-7.66c-.11-.17-.14-.2-.22-.2s-.11.03-.22.2l-1.45,2.12c-.25.36-.25.53-.25.93v4.14c0,.96,1.56,1.89,1.56,2.32,0,.23-.14.33-.4.33h-5.94c-.25,0-.4-.1-.4-.33,0-.43,1.56-1.36,1.56-2.32V8.18c0-.96-1.56-1.89-1.56-2.32,0-.23.14-.33.4-.33h5.94c.25,0,.4.1.4.33,0,.43-1.56,1.36-1.56,2.32v8.35c0,.13.07.2.18.2.07,0,.14-.07.18-.13l5.18-8.29c.4-.63.58-.93.58-1.26,0-.56-.8-.76-.8-1.19,0-.23.15-.33.4-.33h5.83c.25,0,.4.1.4.33,0,.43-1.16.7-1.92,1.89l-5.46,8.65s-.22.33-.22.5.07.33.18.53l6.23,10.9Z"/>
  <path d="M28.33,27.9c0,.96,1.56,1.89,1.56,2.32,0,.23-.15.33-.4.33h-5.93c-.25,0-.4-.1-.4-.33,0-.43,1.56-1.36,1.56-2.32V8.18c0-.96-1.56-1.89-1.56-2.32,0-.23.14-.33.4-.33h5.93c.25,0,.4.1.4.33,0,.43-1.56,1.36-1.56,2.32v19.72Z"/>
  <path d="M45.99,30.55c-.54,0-.8-.33-1.19-.99l-7.71-14.78c-.18-.33-.22-.43-.4-.43-.15,0-.18.1-.18.36v13.19c0,.96,1.56,1.89,1.56,2.32,0,.23-.14.33-.4.33h-5.76c-.25,0-.4-.1-.4-.33,0-.43,1.56-1.36,1.56-2.32V8.18c0-.96-1.56-1.89-1.56-2.32,0-.23.15-.33.4-.33h4.13c.54,0,.87.33,1.19.99l7.93,16.01c.07.13.15.26.25.26s.11-.2.11-.2v-14.42c0-.96-1.56-1.89-1.56-2.32,0-.23.14-.33.4-.33h5.75c.25,0,.4.1.4.33,0,.43-1.56,1.36-1.56,2.32v21.71c0,.33-.14.66-.69.66h-2.28Z"/>
  <path d="M61.31,22.73c-.22,0-1.05.5-1.37.5-.22,0-.33-.2-.33-.43v-2.65c0-.4.25-.56.76-.86,0,0,3.98-1.72,4.38-1.72.33,0,.47.16.47.46v10.24c0,1.06-1.09,2.29-2.97,2.29h-7.13c-1.7,0-2.82-.76-2.82-2.12V7.65c0-1.36,1.12-2.12,2.82-2.12h7.13c1.88,0,2.97,1.23,2.97,2.29v3.25c0,.56-.11.8-.36.96,0,0-2.42,1.59-2.79,1.59-.33,0-.47-.17-.47-.46v-4.28c0-.43-.36-.7-.69-.7h-4.23c-.54,0-.76.23-.76.73v18.26c0,.5.22.73.76.73h4.23c.33,0,.69-.27.69-.7v-4.11c0-.23-.07-.36-.29-.36Z"/>
  <path d="M71.2,13.01c0,.63.18,1.09.94,1.62l6.04,3.98c1.12.73,1.59,1.29,1.59,2.52v7.29c0,1.36-1.12,2.12-2.82,2.12h-6.41c-1.88,0-2.97-1.23-2.97-2.29v-6.33c0-.3.14-.46.47-.46.36,0,2.79,1.59,2.79,1.59.25.17.36.4.36.96v3.18c0,.43.36.7.69.7h3.51c.54,0,.76-.23.76-.73v-4.71c0-.6-.25-1.09-.9-1.52l-5.97-3.94c-1.05-.7-1.7-1.26-1.7-2.49v-6.86c0-1.36,1.12-2.12,2.82-2.12h6.4c1.88,0,2.97,1.23,2.97,2.29v5.34c0,.3-.14.46-.47.46-.36,0-2.79-1.59-2.79-1.59-.25-.17-.36-.4-.36-.96v-2.19c0-.43-.29-.7-.69-.7h-3.51c-.54,0-.76.23-.76.73v4.11Z"/>
  <path d="M19.96,68.12c.83,1.16,1.92,1.46,1.92,1.89,0,.23-.15.33-.4.33h-5.83c-.25,0-.4-.1-.4-.33,0-.43.8-.63.8-1.19,0-.1-.07-.33-.25-.66l-4.45-7.66c-.11-.17-.14-.2-.22-.2s-.11.03-.22.2l-1.45,2.12c-.25.36-.25.53-.25.93v4.14c0,.96,1.56,1.89,1.56,2.32,0,.23-.14.33-.4.33h-5.94c-.25,0-.4-.1-.4-.33,0-.43,1.56-1.36,1.56-2.32v-19.72c0-.96-1.56-1.89-1.56-2.32,0-.23.14-.33.4-.33h5.94c.25,0,.4.1.4.33,0,.43-1.56,1.36-1.56,2.32v8.35c0,.13.07.2.18.2.07,0,.14-.07.18-.13l5.18-8.29c.4-.63.58-.93.58-1.26,0-.56-.8-.76-.8-1.19,0-.23.15-.33.4-.33h5.83c.25,0,.4.1.4.33,0,.43-1.16.7-1.92,1.89l-5.46,8.65s-.22.33-.22.5.07.33.18.53l6.23,10.9Z"/>
  <path d="M32.89,70.34h-7.13c-1.7,0-2.82-.76-2.82-2.12v-20.78c0-1.36,1.12-2.12,2.82-2.12h7.13c1.88,0,2.97,1.23,2.97,2.29v20.45c0,1.06-1.09,2.29-2.97,2.29ZM31.55,47.97h-4.23c-.54,0-.76.23-.76.73v18.26c0,.5.22.73.76.73h4.23c.33,0,.69-.26.69-.7v-18.33c0-.43-.36-.7-.69-.7Z"/>
  <path d="M38.4,70.01c0-.43,1.56-1.36,1.56-2.32v-19.72c0-.96-1.56-1.89-1.56-2.32,0-.23.14-.33.4-.33h11.11c2.17,0,3.33.83,3.33,2.75v8.12c0,.76-.4,1.23-1.01,1.66l-2.39,1.52c1.34,3.71,3.08,8.22,3.47,8.75.83,1.16,1.66,1.46,1.66,1.89,0,.23-.14.33-.4.33h-5.83c-.25,0-.4-.1-.4-.33,0-.43.8-.63.8-1.19,0-.1-.07-.3-.18-.66-.47-1.49-1.59-4.31-2.64-6.86l-2.32,1.39c-.33.2-.43.5-.43.86v4.14c0,.96,1.56,1.89,1.56,2.32,0,.23-.14.33-.4.33h-5.94c-.25,0-.4-.1-.4-.33ZM43.57,48.63v10.11c0,.23.11.36.25.36.18,0,.51-.2.51-.2l4.16-2.49c.8-.53,1.12-.93,1.12-1.49v-5.93c0-.76-.29-1.03-1.12-1.03h-4.31c-.33,0-.61.27-.61.66Z"/>
  <path d="M70.69,70.34c-.54,0-.8-.33-1.19-.99l-7.71-14.78c-.18-.33-.22-.43-.4-.43-.15,0-.18.1-.18.36v13.19c0,.96,1.56,1.89,1.56,2.32,0,.23-.14.33-.4.33h-5.76c-.25,0-.4-.1-.4-.33,0-.43,1.56-1.36,1.56-2.32v-19.72c0-.96-1.56-1.89-1.56-2.32,0-.23.15-.33.4-.33h4.13c.54,0,.87.33,1.19.99l7.93,16.01c.07.13.15.26.25.26s.11-.2.11-.2v-14.42c0-.96-1.56-1.89-1.56-2.32,0-.23.14-.33.4-.33h5.75c.25,0,.4.1.4.33,0,.43-1.56,1.36-1.56,2.32v21.71c0,.33-.14.66-.69.66h-2.28Z"/>
  <path d="M87.06,48.63c0-.4-.29-.66-.62-.66h-4.27c-.33,0-.51.17-.51.53v10.01l4.6-2.55c.36-.2.58-.33.76-.33.22,0,.33.2.33.43v2.65c0,.4-.25.56-.76.86l-4.92,2.72v4.87c0,.33.22.53.54.53h4.16c.33,0,.69-.26.69-.7v-2.19c0-.56.11-.79.36-.96,0,0,2.43-1.42,2.79-1.42.33,0,.47.16.47.46v6.53c0,.6-.33.93-1.09.93h-12.7c-.25,0-.4-.1-.4-.33,0-.43,1.56-1.36,1.56-2.32v-19.72c0-.96-1.56-1.89-1.56-2.32,0-.23.15-.33.4-.33h12.67c.8,0,1.12.33,1.12.8v3.74c0,.56-.11.8-.36.96,0,0-2.43,1.59-2.79,1.59-.33,0-.47-.17-.47-.46v-3.31Z"/>
  <path d="M92.49,70.01c0-.43,1.56-1.36,1.56-2.32v-19.72c0-.96-1.56-1.89-1.56-2.32,0-.23.15-.33.4-.33h11.11c2.17,0,3.33.83,3.33,2.75v8.12c0,.76-.4,1.23-1.01,1.66l-2.39,1.52c1.34,3.71,3.08,8.22,3.47,8.75.83,1.16,1.66,1.46,1.66,1.89,0,.23-.14.33-.4.33h-5.83c-.25,0-.4-.1-.4-.33,0-.43.8-.63.8-1.19,0-.1-.07-.3-.18-.66-.47-1.49-1.59-4.31-2.64-6.86l-2.32,1.39c-.33.2-.43.5-.43.86v4.14c0,.96,1.56,1.89,1.56,2.32,0,.23-.14.33-.4.33h-5.94c-.25,0-.4-.1-.4-.33ZM97.67,48.63v10.11c0,.23.11.36.25.36.18,0,.51-.2.51-.2l4.16-2.49c.8-.53,1.12-.93,1.12-1.49v-5.93c0-.76-.29-1.03-1.12-1.03h-4.31c-.33,0-.61.27-.61.66Z"/>
</svg>